<!-- Generator: Adobe Illustrator 21.0.0, SVG Export Plug-In . SVG Version: 6.00 Build 0)  -->
<svg version="1.1" id="Capa_1" xmlns="http://www.w3.org/2000/svg" xmlns:xlink="http://www.w3.org/1999/xlink" x="0px" y="0px"
	 viewBox="0 0 2179 934" style="enable-background:new 0 0 2179 934;" xml:space="preserve">
<style type="text/css">
	.st0{fill:#464749;}
	.st1{fill:#EAEAD8;}
	.st2{fill:#FAFAE3;}
	.st3{fill:#FDFDE3;stroke:#9C9D9B;stroke-width:15;stroke-miterlimit:10;}
	.st4{fill:#9C9D9B;}
	.st5{fill:#FDFDE3;}
	.st6{font-family: 'Cyclo Trial';}
	.st7{font-size:499.1608px;}
	.st8{enable-background:new    ;}
	.st9{fill:#FFAF6D;}
	.st10{font-size:376.08px;}
</style>
<g>
	<g>
		<path class="st0" d="M494.1,869.7l-97.4-275.9c42.3-23.9,61.6-87.5,49.4-143.3c-5-22.7-16.2-45.1-31.1-64
			c-2.4,6.4-7.8,11.4-14.7,12.9l-156,35.3c-1.6,0.4-3.3,0.5-4.9,0.5c-2.9,20.1-2.5,40.9,1.7,60.2c13.3,60.5,70.7,112.3,124.6,107.9
			L415.1,889c2.6,18.8,20.6,31.3,39.2,27.3l15.8-3.4C489.4,908.6,500.7,888.4,494.1,869.7z"/>
		<g id="p7EvFz.tif">
			<g>
				<path class="st1" d="M406.3,554c21.9-43.3,23-85.9,14.9-133.3C451.7,456.3,443.2,532.5,406.3,554z"/>
				<path class="st2" d="M251.4,430.7c7.7-3.2,15.4-6.3,23.1-9.5c-1.2,36.2,5.6,71.4,13.2,106.7
					C261.9,500.3,253.9,466.5,251.4,430.7z"/>
			</g>
		</g>
		<g>
			<g>
				<path class="st3" d="M398.4,395l-156,35.3c-9.7,2.2-19.5-2.8-23.4-11.9l-46.7-109c-5-11.7,1.8-25.2,14.2-28.1l201.7-47.1
					c12.8-3,25.1,6.7,25.2,19.8l0.9,120.7C414.5,384.5,407.9,392.9,398.4,395z"/>
				<g>
					<path class="st4" d="M288.6,257.6c1.9,1.9,3.3,3.9,4.6,5.9c1.3,2,2.3,4.1,3.2,6.2c0.9,2.1,1.6,4.3,2.2,6.4c0.6,2.2,1,4.4,1,6.7
						c0,4.6-1.4,9.5-0.9,14c0.4,4.5,2.1,8.8,4.5,12.9c1.1,2.1,2.3,4.1,3.3,6.2s1.7,4.3,2.4,6.4c1.5,4.3,3,8.6,3.7,13
						c0.4,2.2,0.6,4.5,0.7,6.8s0.2,4.6,0.1,6.9s-0.3,4.7-0.6,7.1c-0.4,2.4-0.8,4.8-1.6,7.3l-1.5,0.3c-1.8-1.9-3.2-3.9-4.4-6
						c-1.3-2-2.4-4.1-3.4-6.2s-1.9-4.2-2.7-6.3c-0.8-2.1-1.5-4.3-2.1-6.5c-1.2-4.4-1.5-8.9-1.9-13.4c-0.2-2.3-0.4-4.5-0.4-6.8
						s0.3-4.7,0.5-7c0.5-4.7,0.3-9.3-1.2-13.6c-1.4-4.3-4.7-8.2-6.6-12.4c-1-2.1-1.5-4.3-1.8-6.5s-0.5-4.5-0.6-6.8
						c0-2.3,0.1-4.6,0.4-7s0.8-4.8,1.8-7.3L288.6,257.6z"/>
				</g>
				<g>
					<path class="st4" d="M238.3,269.5c1.8,1.4,3.1,2.9,4.3,4.4c1.1,1.5,2.1,3.1,2.9,4.7c0.8,1.6,1.4,3.2,1.9,4.9
						c0.5,1.7,0.8,3.4,0.7,5.1c-0.2,3.6-1.9,7.5-1.6,10.9c0.2,3.5,1.7,6.7,3.8,9.8c1,1.5,2.1,3.1,3,4.7s1.5,3.2,2.1,4.8
						c1.3,3.3,2.6,6.5,3.1,9.9c0.2,1.7,0.4,3.4,0.4,5.2c0,1.8-0.1,3.5-0.3,5.3c-0.2,1.8-0.5,3.6-0.9,5.5c-0.5,1.9-1,3.7-2,5.7
						l-1.5,0.3c-1.6-1.4-2.9-2.9-4.1-4.4c-1.2-1.5-2.2-3.1-3.1-4.6c-0.9-1.6-1.7-3.2-2.4-4.8c-0.7-1.6-1.3-3.2-1.8-4.9
						c-1-3.3-1.1-6.8-1.2-10.3c-0.1-1.7-0.2-3.5,0-5.3c0.1-1.8,0.5-3.6,0.8-5.5c0.7-3.7,0.7-7.2-0.5-10.5s-4.2-6.2-5.9-9.3
						c-0.9-1.6-1.3-3.3-1.5-5s-0.3-3.5-0.3-5.2c0.1-1.8,0.3-3.6,0.7-5.4c0.5-1.9,1-3.7,2.1-5.7L238.3,269.5z"/>
				</g>
				<g>
					<path class="st4" d="M336.9,248.6c1.8,1.4,3.1,2.9,4.3,4.4c1.1,1.5,2.1,3.1,2.9,4.7s1.4,3.2,1.9,4.9c0.5,1.7,0.8,3.4,0.7,5.1
						c-0.2,3.6-1.9,7.5-1.6,10.9c0.2,3.5,1.7,6.7,3.8,9.8c1,1.5,2.1,3.1,3,4.7s1.5,3.2,2.1,4.8c1.3,3.3,2.6,6.5,3.1,9.9
						c0.2,1.7,0.4,3.4,0.4,5.2c0,1.8-0.1,3.5-0.3,5.3c-0.2,1.8-0.5,3.6-0.9,5.5c-0.5,1.9-1,3.7-2,5.7l-1.5,0.3
						c-1.6-1.4-2.9-2.9-4.1-4.4s-2.2-3.1-3.1-4.6c-0.9-1.6-1.7-3.2-2.4-4.8c-0.7-1.6-1.3-3.2-1.8-4.9c-1-3.3-1.1-6.8-1.2-10.3
						c-0.1-1.7-0.2-3.5,0-5.3c0.1-1.8,0.5-3.6,0.8-5.5c0.7-3.7,0.7-7.2-0.5-10.5s-4.2-6.2-5.9-9.3c-0.9-1.6-1.3-3.3-1.5-5
						s-0.3-3.5-0.3-5.2c0.1-1.8,0.3-3.6,0.7-5.4c0.5-1.9,1-3.7,2.1-5.7L336.9,248.6z"/>
				</g>
				<g>
					<path class="st4" d="M203.1,277.6c1.7,1,3,2.2,4.1,3.4c1.1,1.2,1.9,2.4,2.6,3.7c0.7,1.3,1.3,2.5,1.7,3.9
						c0.4,1.3,0.6,2.7,0.4,4.1c-0.4,2.9-2.2,6.1-2,8.9c0.1,2.8,1.4,5.3,3.4,7.7c1,1.2,2,2.4,2.7,3.6c0.8,1.2,1.3,2.5,1.9,3.8
						c1.1,2.6,2.3,5.1,2.6,7.9c0.3,2.7,0.2,5.6-0.3,8.5c-0.3,1.5-0.6,2.9-1.2,4.5c-0.5,1.5-1.2,3.1-2.2,4.7l-1.5,0.3
						c-1.6-1.1-2.8-2.2-3.9-3.4c-1.1-1.2-2-2.4-2.9-3.6c-1.7-2.5-3-5-3.8-7.6s-0.8-5.5-0.8-8.3c0-1.4-0.1-2.8,0.2-4.3
						c0.2-1.4,0.6-2.9,1-4.4c0.8-3,1-5.8-0.1-8.4c-1-2.6-3.9-4.8-5.5-7.3c-0.8-1.2-1.1-2.6-1.3-3.9c-0.2-1.4-0.2-2.8,0-4.2
						c0.1-1.4,0.4-2.9,0.9-4.4s1.2-3.1,2.3-4.7L203.1,277.6z"/>
				</g>
				<g>
					<path class="st4" d="M373.8,239.4c1.7,1.1,3,2.3,4.1,3.5s2,2.5,2.7,3.8s1.3,2.6,1.7,4c0.4,1.3,0.7,2.7,0.5,4.2
						c-0.4,3-2.1,6.2-2,9.1s1.4,5.5,3.4,7.9c1,1.2,2,2.5,2.8,3.7c0.8,1.3,1.3,2.6,1.9,3.9c1.2,2.6,2.3,5.3,2.7,8.1
						c0.4,2.8,0.2,5.7-0.3,8.7c-0.3,1.5-0.6,3-1.1,4.6s-1.2,3.1-2.2,4.8l-1.5,0.3c-1.6-1.1-2.8-2.3-3.9-3.5s-2.1-2.5-2.9-3.7
						c-1.7-2.5-3-5.1-3.8-7.9c-0.8-2.7-0.8-5.6-0.9-8.5c0-1.4-0.1-2.9,0.1-4.4s0.6-3,1-4.5c0.8-3.1,1-6-0.1-8.6
						c-1-2.7-4-4.9-5.5-7.5c-0.8-1.3-1.2-2.6-1.3-4.1c-0.2-1.4-0.2-2.8-0.1-4.3s0.4-3,0.9-4.5c0.5-1.6,1.2-3.1,2.3-4.8L373.8,239.4z
						"/>
				</g>
			</g>
			<path class="st3" d="M339.6,29.9C318.3,34.1,299.7,44.1,285,58c-18.9-7.1-40-9.2-61.3-4.9c-19.9,4-37.5,13-51.8,25.5
				c-16.1-4.3-33.4-5.1-50.9-1.6c-60.6,12-99.9,71-87.8,131.7s71.1,100,131.8,87.9c19.9-4,37.5-13,51.8-25.5
				c16.1,4.3,33.4,5.1,50.9,1.6c21.3-4.3,39.9-14.3,54.6-28.1c18.9,7.1,40,9.2,61.3,4.9c60.7-12.1,100-71.1,87.9-131.8
				C459.3,57.1,400.3,17.7,339.6,29.9z"/>
		</g>
		<path class="st5" d="M413.2,777.5l-1.7,0.4c-1.7,0.4-3.3-0.7-3.7-2.4l-37.3-170.3c-0.4-1.7,0.7-3.3,2.4-3.7l1.7-0.4
			c1.7-0.4,3.3,0.7,3.7,2.4l37.3,170.3C416,775.5,414.9,777.2,413.2,777.5z"/>
	</g>
	<text transform="matrix(1 0 0 1 473.3242 652.0342)" class="st0 st6 st7">G</text>
	<text transform="matrix(1 0 0 1 912.6241 652.0342)" class="st8"><tspan x="0" y="0" class="st9 st6 st10">e</tspan><tspan x="217" y="0" class="st4 st6 st10"> </tspan><tspan x="405" y="0" class="st9 st6 st10">e</tspan><tspan x="622" y="0" class="st0 st6 st10">r</tspan><tspan x="829.3" y="0" class="st9 st6 st10">e</tspan><tspan x="1046.2" y="0" class="st0 st6 st10">s</tspan></text>
	<g>
		<text transform="matrix(1 0 0 1 1099.043 770.1211)" class="st0 st6 st10">d</text>
	</g>
</g>
</svg>
